<svg width="102" height="102" viewBox="0 0 102 102" fill="none" xmlns="http://www.w3.org/2000/svg">
<path d="M79.6875 30.2812C80.1102 30.2812 80.5156 30.1133 80.8145 29.8145C81.1133 29.5156 81.2812 29.1102 81.2812 28.6875C81.2749 23.1945 79.09 17.9283 75.2059 14.0441C71.3217 10.16 66.0555 7.97508 60.5625 7.96875H31.875C30.6069 7.96875 29.3908 8.47249 28.4941 9.36915C27.5975 10.2658 27.0938 11.4819 27.0938 12.75V31.875C27.0938 34.8338 25.9184 37.6715 23.8262 39.7637C21.734 41.8559 18.8963 43.0312 15.9375 43.0312C15.5148 43.0312 15.1094 43.1992 14.8105 43.498C14.5117 43.7969 14.3438 44.2023 14.3438 44.625C14.3438 45.0477 14.5117 45.4531 14.8105 45.752C15.1094 46.0508 15.5148 46.2188 15.9375 46.2188C19.7417 46.2188 23.3901 44.7075 26.0801 42.0176C28.77 39.3276 30.2812 35.6792 30.2812 31.875V30.2812H46.2188V41.6845C46.2228 43.3581 45.8481 45.011 45.123 46.5193C44.3978 48.0276 43.3408 49.3524 42.0312 50.3944L35.6562 55.4904C33.9736 56.8311 32.6162 58.535 31.6854 60.4746C30.7546 62.4141 30.2745 64.5391 30.2812 66.6905V89.25C30.2812 90.5181 30.785 91.7342 31.6816 92.6309C32.5783 93.5275 33.7944 94.0312 35.0625 94.0312H76.5C77.7681 94.0312 78.9842 93.5275 79.8809 92.6309C80.7775 91.7342 81.2812 90.5181 81.2812 89.25V84.2576C81.2851 65.2753 76.2073 46.6381 66.5749 30.2812H79.6875ZM30.2812 12.75C30.2812 12.3273 30.4492 11.9219 30.748 11.623C31.0469 11.3242 31.4523 11.1562 31.875 11.1562H60.5625C64.9348 11.1615 69.1477 12.7981 72.3769 15.7458C75.6061 18.6935 77.6191 22.7401 78.022 27.0938H30.2812V12.75ZM78.0938 84.2576V89.25C78.0938 89.6727 77.9258 90.0781 77.627 90.377C77.3281 90.6758 76.9227 90.8438 76.5 90.8438H35.0625C34.6398 90.8438 34.2344 90.6758 33.9355 90.377C33.6367 90.0781 33.4688 89.6727 33.4688 89.25V66.6905C33.4647 65.0169 33.8394 63.364 34.5645 61.8557C35.2897 60.3474 36.3467 59.0226 37.6563 57.9806L44.0313 52.8846C45.7139 51.5439 47.0713 49.84 48.0021 47.9004C48.9329 45.9609 49.413 43.8359 49.4062 41.6845V30.2812H62.8575C72.8251 46.5203 78.0989 65.2034 78.0938 84.2576Z" fill="black"/>
</svg>
