<svg width="36" height="36" viewBox="0 0 36 36" fill="none" xmlns="http://www.w3.org/2000/svg">
<path d="M4.98082 17.7098C4.98082 17.8565 5.03913 17.9973 5.14292 18.1011C5.2467 18.2049 5.38747 18.2632 5.53425 18.2632H28.5485L19.5318 27.2799C19.428 27.3838 19.3696 27.5246 19.3696 27.6715C19.3696 27.8183 19.428 27.9592 19.5318 28.063C19.6357 28.1669 19.7765 28.2252 19.9234 28.2252C20.0702 28.2252 20.2111 28.1669 20.3149 28.063L30.2766 18.1013C30.3281 18.0499 30.3689 17.9889 30.3967 17.9217C30.4246 17.8545 30.4389 17.7825 30.4389 17.7098C30.4389 17.637 30.4246 17.565 30.3967 17.4978C30.3689 17.4306 30.3281 17.3696 30.2766 17.3182L20.3149 7.35652C20.2635 7.3051 20.2024 7.26431 20.1353 7.23649C20.0681 7.20866 19.9961 7.19434 19.9234 7.19434C19.8506 7.19434 19.7786 7.20866 19.7115 7.23649C19.6443 7.26431 19.5832 7.3051 19.5318 7.35652C19.4804 7.40794 19.4396 7.46898 19.4118 7.53617C19.384 7.60335 19.3696 7.67535 19.3696 7.74807C19.3696 7.82079 19.384 7.89279 19.4118 7.95998C19.4396 8.02716 19.4804 8.0882 19.5318 8.13962L28.5485 17.1563H5.53425C5.38747 17.1563 5.2467 17.2146 5.14292 17.3184C5.03913 17.4222 4.98082 17.563 4.98082 17.7098Z" fill="#353535"/>
</svg>
