<svg width="32" height="32" viewBox="0 0 32 32" fill="none" xmlns="http://www.w3.org/2000/svg">
<path d="M4.5 16C4.5 15.8674 4.55268 15.7402 4.64645 15.6464C4.74022 15.5527 4.8674 15.5 5 15.5L25.7925 15.5L17.6463 7.35375C17.5524 7.25993 17.4997 7.13268 17.4997 7C17.4997 6.86732 17.5524 6.74007 17.6463 6.64625C17.7401 6.55243 17.8673 6.49972 18 6.49972C18.1327 6.49972 18.2599 6.55243 18.3538 6.64625L27.3538 15.6462C27.4002 15.6927 27.4371 15.7478 27.4623 15.8085C27.4874 15.8692 27.5004 15.9343 27.5004 16C27.5004 16.0657 27.4874 16.1308 27.4623 16.1915C27.4371 16.2522 27.4002 16.3073 27.3538 16.3537L18.3538 25.3537C18.3073 25.4002 18.2521 25.4371 18.1915 25.4622C18.1308 25.4873 18.0657 25.5003 18 25.5003C17.9343 25.5003 17.8693 25.4873 17.8086 25.4622C17.7479 25.4371 17.6927 25.4002 17.6463 25.3537C17.5998 25.3073 17.5629 25.2521 17.5378 25.1914C17.5127 25.1308 17.4997 25.0657 17.4997 25C17.4997 24.9343 17.5127 24.8692 17.5378 24.8086C17.5629 24.7479 17.5998 24.6927 17.6463 24.6462L25.7925 16.5L5 16.5C4.8674 16.5 4.74022 16.4473 4.64645 16.3536C4.55268 16.2598 4.5 16.1326 4.5 16Z" fill="black"/>
</svg>
