<svg width="36" height="36" viewBox="0 0 36 36" fill="none" xmlns="http://www.w3.org/2000/svg">
<path d="M30.4385 17.7098C30.4385 17.8565 30.3802 17.9973 30.2764 18.1011C30.1727 18.2049 30.0319 18.2632 29.8851 18.2632H6.87083L15.8875 27.2799C15.9914 27.3838 16.0497 27.5246 16.0497 27.6715C16.0497 27.8183 15.9914 27.9592 15.8875 28.063C15.7837 28.1669 15.6429 28.2252 15.496 28.2252C15.3491 28.2252 15.2083 28.1669 15.1044 28.063L5.14275 18.1013C5.0913 18.0499 5.05048 17.9889 5.02262 17.9217C4.99477 17.8545 4.98044 17.7825 4.98044 17.7098C4.98044 17.637 4.99477 17.565 5.02262 17.4978C5.05048 17.4306 5.0913 17.3696 5.14275 17.3182L15.1044 7.35652C15.1559 7.3051 15.2169 7.26431 15.2841 7.23649C15.3513 7.20866 15.4233 7.19434 15.496 7.19434C15.5687 7.19434 15.6407 7.20866 15.7079 7.23649C15.7751 7.26431 15.8361 7.3051 15.8875 7.35652C15.939 7.40794 15.9798 7.46898 16.0076 7.53617C16.0354 7.60335 16.0497 7.67535 16.0497 7.74807C16.0497 7.82079 16.0354 7.89279 16.0076 7.95998C15.9798 8.02716 15.939 8.0882 15.8875 8.13962L6.87083 17.1563H29.8851C30.0319 17.1563 30.1727 17.2146 30.2764 17.3184C30.3802 17.4222 30.4385 17.563 30.4385 17.7098Z" fill="#353535"/>
</svg>
