<svg width="32" height="32" viewBox="0 0 32 32" fill="none" xmlns="http://www.w3.org/2000/svg">
<path d="M27.5 16C27.5 16.1326 27.4473 16.2598 27.3535 16.3536C27.2598 16.4473 27.1326 16.5 27 16.5H6.2075L14.3537 24.6463C14.4476 24.7401 14.5003 24.8673 14.5003 25C14.5003 25.1327 14.4476 25.2599 14.3537 25.3538C14.2599 25.4476 14.1327 25.5003 14 25.5003C13.8673 25.5003 13.7401 25.4476 13.6462 25.3538L4.64625 16.3538C4.59976 16.3073 4.56288 16.2522 4.53772 16.1915C4.51255 16.1308 4.4996 16.0657 4.4996 16C4.4996 15.9343 4.51255 15.8692 4.53772 15.8085C4.56288 15.7478 4.59976 15.6927 4.64625 15.6463L13.6462 6.64625C13.6927 6.5998 13.7479 6.56295 13.8085 6.53781C13.8692 6.51267 13.9343 6.49973 14 6.49973C14.0657 6.49973 14.1307 6.51267 14.1914 6.53781C14.2521 6.56295 14.3073 6.5998 14.3537 6.64625C14.4002 6.69271 14.4371 6.74786 14.4622 6.80856C14.4873 6.86925 14.5003 6.93431 14.5003 7C14.5003 7.0657 14.4873 7.13076 14.4622 7.19145C14.4371 7.25215 14.4002 7.3073 14.3537 7.35375L6.2075 15.5H27C27.1326 15.5 27.2598 15.5527 27.3535 15.6465C27.4473 15.7402 27.5 15.8674 27.5 16Z" fill="black"/>
</svg>
