<svg width="27" height="27" viewBox="0 0 27 27" fill="none" xmlns="http://www.w3.org/2000/svg">
<path d="M20.6719 6.75V17.7188C20.6719 17.8306 20.6274 17.9379 20.5483 18.0171C20.4692 18.0962 20.3619 18.1406 20.25 18.1406C20.1381 18.1406 20.0308 18.0962 19.9517 18.0171C19.8726 17.9379 19.8281 17.8306 19.8281 17.7188V7.76883L7.04847 20.5485C6.96931 20.6276 6.86194 20.6721 6.74999 20.6721C6.63804 20.6721 6.53067 20.6276 6.45151 20.5485C6.37235 20.4693 6.32788 20.362 6.32788 20.25C6.32788 20.138 6.37235 20.0307 6.45151 19.9515L19.2312 7.17188H9.28124C9.16935 7.17188 9.06205 7.12743 8.98293 7.04831C8.90381 6.96919 8.85937 6.86189 8.85937 6.75C8.85937 6.63811 8.90381 6.53081 8.98293 6.45169C9.06205 6.37257 9.16935 6.32812 9.28124 6.32812H20.25C20.3619 6.32812 20.4692 6.37257 20.5483 6.45169C20.6274 6.53081 20.6719 6.63811 20.6719 6.75Z" fill="#01AEF0"/>
</svg>
