<svg width="25" height="24" viewBox="0 0 25 24" fill="none" xmlns="http://www.w3.org/2000/svg">
<path d="M22.5625 6.65151H17.6629C17.9143 6.49366 18.1526 6.31575 18.3754 6.11951C18.7113 5.82017 18.982 5.45477 19.1703 5.04613C19.3587 4.63749 19.4608 4.19439 19.4703 3.74451C19.4848 3.24962 19.3982 2.75697 19.2157 2.29673C19.0332 1.83649 18.7587 1.41835 18.4089 1.06793C18.0592 0.717506 17.6416 0.442176 17.1817 0.258804C16.7218 0.0754331 16.2293 -0.0121188 15.7344 0.00151185C15.2845 0.0109352 14.8414 0.113028 14.4328 0.301411C14.0241 0.489795 13.6587 0.760422 13.3594 1.09639C12.8093 1.74553 12.3863 2.4924 12.1125 3.29801C11.8393 2.493 11.4171 1.74655 10.868 1.09757C10.5685 0.761104 10.2028 0.490084 9.79368 0.301483C9.3846 0.112882 8.94099 0.0107607 8.49062 0.00151185C7.99542 -0.01277 7.50252 0.07426 7.04215 0.257264C6.58178 0.440268 6.16364 0.715389 5.81339 1.06575C5.46314 1.41612 5.18815 1.83434 5.00529 2.29477C4.82243 2.75519 4.73556 3.24812 4.75 3.74332C4.75942 4.1932 4.86152 4.6363 5.0499 5.04494C5.23828 5.45358 5.50891 5.81898 5.84488 6.11832C6.06752 6.31473 6.30581 6.49265 6.55738 6.65032H1.6625C1.44408 6.65032 1.2278 6.69337 1.02601 6.77699C0.824234 6.86061 0.640908 6.98318 0.486515 7.13768C0.332122 7.29218 0.209688 7.47559 0.12621 7.67744C0.0427311 7.87928 -0.000155592 8.09559 4.24146e-07 8.31401V12.114C4.24146e-07 12.5549 0.175156 12.9778 0.486935 13.2896C0.798715 13.6014 1.22158 13.7765 1.6625 13.7765H1.9V21.614C1.9 22.0549 2.07516 22.4778 2.38694 22.7896C2.69871 23.1014 3.12158 23.2765 3.5625 23.2765H20.6625C21.1034 23.2765 21.5263 23.1014 21.8381 22.7896C22.1498 22.4778 22.325 22.0549 22.325 21.614V13.7765H22.5625C23.0034 13.7765 23.4263 13.6014 23.7381 13.2896C24.0498 12.9778 24.225 12.5549 24.225 12.114V8.31401C24.225 7.87309 24.0498 7.45023 23.7381 7.13845C23.4263 6.82667 23.0034 6.65151 22.5625 6.65151ZM13.0352 5.34526C13.3024 3.90601 13.7821 2.76245 14.4234 2.03807C14.595 1.84869 14.8037 1.69666 15.0366 1.59145C15.2695 1.48623 15.5216 1.43009 15.7771 1.42651H15.8424C16.1379 1.42655 16.4303 1.48585 16.7024 1.60091C16.9745 1.71597 17.2208 1.88445 17.4266 2.09637C17.6324 2.3083 17.7937 2.55936 17.9007 2.83471C18.0078 3.11005 18.0586 3.40408 18.05 3.69939C18.046 3.95519 17.9893 4.20741 17.8834 4.44033C17.7776 4.67324 17.6249 4.88185 17.4349 5.05314C16.1619 6.17651 14.003 6.51257 12.8654 6.60995C12.8951 6.26676 12.9438 5.82976 13.0352 5.34526ZM6.82219 2.0737C7.23674 1.66084 7.79749 1.42826 8.38256 1.42651H8.44788C8.70368 1.43054 8.9559 1.48724 9.18882 1.59308C9.42173 1.69891 9.63034 1.85161 9.80163 2.04164C10.925 3.31464 11.2611 5.47351 11.3584 6.61114C11.0153 6.58145 10.5782 6.53039 10.0985 6.44132C8.65925 6.17651 7.51569 5.69439 6.79131 5.05195C6.60099 4.88109 6.448 4.67276 6.34195 4.44001C6.2359 4.20726 6.17906 3.95512 6.175 3.69939C6.16681 3.39866 6.21997 3.09942 6.33124 2.81992C6.44251 2.54042 6.60955 2.28651 6.82219 2.0737ZM1.425 12.114V8.31401C1.425 8.25102 1.45002 8.19061 1.49456 8.14607C1.5391 8.10153 1.59951 8.07651 1.6625 8.07651H11.4V12.3515H1.6625C1.59951 12.3515 1.5391 12.3265 1.49456 12.2819C1.45002 12.2374 1.425 12.177 1.425 12.114ZM3.325 21.614V13.7765H11.4V21.8515H3.5625C3.49951 21.8515 3.4391 21.8265 3.39456 21.7819C3.35002 21.7374 3.325 21.677 3.325 21.614ZM20.9 21.614C20.9 21.677 20.875 21.7374 20.8304 21.7819C20.7859 21.8265 20.7255 21.8515 20.6625 21.8515H12.825V13.7765H20.9V21.614ZM22.8 12.114C22.8 12.177 22.775 12.2374 22.7304 12.2819C22.6859 12.3265 22.6255 12.3515 22.5625 12.3515H12.825V8.07651H22.5625C22.6255 8.07651 22.6859 8.10153 22.7304 8.14607C22.775 8.19061 22.8 8.25102 22.8 8.31401V12.114Z" fill="#0D6587"/>
</svg>
