<svg width="102" height="102" viewBox="0 0 102 102" fill="none" xmlns="http://www.w3.org/2000/svg">
<path d="M40.5408 64.7275C33.7464 64.7275 27.9877 62.3673 23.2645 57.647C18.5442 52.9295 16.184 47.1721 16.184 40.375C16.184 33.5778 18.5442 27.819 23.2645 23.0987C27.9848 18.3784 33.7436 16.0196 40.5408 16.0225C47.3379 16.0253 53.0953 18.3855 57.8128 23.103C62.5303 27.8205 64.8904 33.5778 64.8933 40.375C64.8933 43.3273 64.3705 46.1847 63.325 48.9472C62.2795 51.7097 60.9053 54.0727 59.2025 56.0362L84.3158 81.141C84.7124 81.5376 84.9249 82.0264 84.9533 82.6072C84.9788 83.1824 84.7663 83.6966 84.3158 84.15C83.8624 84.6033 83.3609 84.83 82.8113 84.83C82.2616 84.83 81.7601 84.6033 81.3068 84.15L56.1978 59.041C54.0728 60.8515 51.629 62.2525 48.8665 63.2442C46.104 64.2359 43.3273 64.7317 40.5365 64.7317M40.5365 60.4817C46.1748 60.4817 50.9363 58.5409 54.8208 54.6592C58.7024 50.7775 60.6433 46.0161 60.6433 40.375C60.6433 34.7338 58.7038 29.9738 54.825 26.095C50.9462 22.2161 46.1862 20.2753 40.545 20.2725C34.9038 20.2725 30.1424 22.2133 26.2608 26.095C22.3791 29.9766 20.4368 34.7366 20.434 40.375C20.4312 46.0133 22.372 50.7733 26.2565 54.655C30.141 58.5366 34.901 60.4775 40.5365 60.4775" fill="black"/>
</svg>
