<svg width="18" height="14" viewBox="0 0 18 14" fill="none" xmlns="http://www.w3.org/2000/svg">
<path d="M17.625 6.5625C17.625 6.71168 17.5657 6.85476 17.4602 6.96025C17.3548 7.06574 17.2117 7.125 17.0625 7.125H0.5625C0.413316 7.125 0.270242 7.06574 0.164752 6.96025C0.0592632 6.85476 0 6.71168 0 6.5625C0 6.41332 0.0592632 6.27024 0.164752 6.16475C0.270242 6.05926 0.413316 6 0.5625 6H17.0625C17.2117 6 17.3548 6.05926 17.4602 6.16475C17.5657 6.27024 17.625 6.41332 17.625 6.5625ZM0.5625 1.125H17.0625C17.2117 1.125 17.3548 1.06574 17.4602 0.960247C17.5657 0.854758 17.625 0.711684 17.625 0.5625C17.625 0.413316 17.5657 0.270242 17.4602 0.164752C17.3548 0.0592632 17.2117 0 17.0625 0H0.5625C0.413316 0 0.270242 0.0592632 0.164752 0.164752C0.0592632 0.270242 0 0.413316 0 0.5625C0 0.711684 0.0592632 0.854758 0.164752 0.960247C0.270242 1.06574 0.413316 1.125 0.5625 1.125ZM17.0625 12H0.5625C0.413316 12 0.270242 12.0593 0.164752 12.1648C0.0592632 12.2702 0 12.4133 0 12.5625C0 12.7117 0.0592632 12.8548 0.164752 12.9602C0.270242 13.0657 0.413316 13.125 0.5625 13.125H17.0625C17.2117 13.125 17.3548 13.0657 17.4602 12.9602C17.5657 12.8548 17.625 12.7117 17.625 12.5625C17.625 12.4133 17.5657 12.2702 17.4602 12.1648C17.3548 12.0593 17.2117 12 17.0625 12Z" fill="#01AEF0"/>
</svg>
