<svg width="102" height="102" viewBox="0 0 102 102" fill="none" xmlns="http://www.w3.org/2000/svg">
<path d="M30.4243 5.6825C30.1162 5.68237 29.8087 5.68449 29.5019 5.68888C25.4123 5.74665 21.4407 6.22218 17.8727 7.2631C12.1639 8.92857 7.35317 12.1844 5.37832 17.5695C3.61603 22.3752 5.1528 26.7682 8.2375 30.1426C11.3222 33.5169 15.8351 36.2413 20.617 38.9626C25.399 41.6839 30.4614 44.3758 34.581 47.3716C38.7008 50.3673 41.7995 53.6273 42.992 57.3511C43.2159 58.0495 43.047 60.2306 42.6093 62.0208C42.4348 62.734 42.2491 63.3591 42.0814 63.895L45.5769 64.7385C45.7442 64.1911 45.9249 63.5583 46.0925 62.8728C46.5881 60.8458 47.119 58.4801 46.4072 56.2574C44.8587 51.4219 41.1084 47.6844 36.6899 44.4716C32.2715 41.2586 27.1067 38.5301 22.391 35.8464C17.6753 33.1627 13.4198 30.497 10.8841 27.7231C8.34847 24.9493 7.41314 22.4364 8.74531 18.804C10.2391 14.7304 13.8282 12.1786 18.877 10.7054C23.9258 9.23238 30.2988 8.98017 36.5923 9.57364C42.8856 10.1673 49.1102 11.5955 53.8845 13.3361C55.9452 14.0873 57.7344 14.8996 59.1245 15.6984C59.7652 15.2209 60.4422 14.7428 61.1534 14.3158C61.5865 14.0559 62.0379 13.8124 62.5097 13.6022C62.2332 13.4089 61.9522 13.2221 61.667 13.042C59.8959 11.9276 57.6726 10.9004 55.1131 9.9673C49.9938 8.10102 43.5349 6.6264 36.9292 6.00324C34.7617 5.79884 32.5798 5.68449 30.4243 5.6825ZM65.4677 16.4977C65.3957 16.5001 65.3216 16.5051 65.2455 16.5128C64.6355 16.5726 63.854 16.877 62.9991 17.3902C61.7799 18.1223 60.5005 19.228 59.1666 20.2217L71.6078 36.9696L75.6414 36.0241C74.7923 29.9802 72.8085 21.5521 66.9676 17.0459C66.3916 16.6015 65.9723 16.4808 65.4677 16.4977ZM75.9864 39.6264L72.4955 40.4448L82.509 83.169H86.1922L75.9864 39.6264ZM11.4358 63.4705L11.0443 67.1516C12.2069 67.1919 13.405 67.2473 14.6324 67.3178L15.0014 63.8498L11.4358 63.4705ZM35.9761 66.1105L34.982 69.7676L46.9915 72.6804L48.0876 69.0335L35.9761 66.1105ZM6.72085 70.6563C6.53478 70.6563 6.50071 70.6364 6.21125 71.0356C5.92178 71.4349 5.57435 72.2493 5.3327 73.3274C4.84899 75.4838 4.73185 78.6354 4.9243 81.7839C5.11694 84.9321 5.60802 88.1101 6.21284 90.3919C6.51506 91.5326 6.85831 92.4564 7.12686 92.9598C7.18643 93.0716 7.1922 93.0654 7.23643 93.13H9.08817C8.44617 91.6878 8.11474 90.1266 8.11538 88.5479C8.11538 82.2977 13.2208 77.1925 19.4709 77.1925C25.7209 77.1925 30.8263 82.2977 30.8263 88.5479C30.827 90.1266 30.4957 91.6877 29.8537 93.13H47.886C47.9773 93.0096 48.1482 92.7341 48.3141 92.2733C48.6727 91.2768 48.9742 89.6719 49.1654 87.9515C49.5479 84.5104 49.5529 80.5792 49.5529 78.9854C49.5529 78.8609 49.4899 78.5836 48.9024 78.0702C48.3149 77.5568 47.2768 76.9436 45.9138 76.3649C43.1872 75.2071 39.1861 74.1482 34.6766 73.2952C25.6578 71.589 14.5492 70.6563 6.72085 70.6563ZM19.4709 80.7784C15.1588 80.7784 11.7013 84.2357 11.7013 88.5479C11.7013 92.86 15.1588 96.3175 19.4709 96.3175C23.7831 96.3175 27.2404 92.86 27.2404 88.5479C27.2404 84.2357 23.7831 80.7784 19.4709 80.7784ZM81.1416 86.755L79.7471 89.544H89.8823L88.4878 86.755H81.1416ZM72.2638 93.13V95.919H97.3654V93.13H72.2638Z" fill="black"/>
</svg>
