<svg width="90" height="62" viewBox="0 0 90 62" fill="none" xmlns="http://www.w3.org/2000/svg">
<path fill-rule="evenodd" clip-rule="evenodd" d="M78.2794 0.62325C78.1175 1.30478 77.8172 1.68593 77.2723 1.9017C76.7025 2.12743 76.5839 2.24616 76.7401 2.43451C76.8133 2.52264 76.9784 2.59472 77.107 2.59472C77.4266 2.59472 78.219 3.41139 78.3089 3.8332C78.4697 4.58881 78.7109 4.73438 78.8781 4.17696C79.1894 3.13995 79.3192 2.96309 79.966 2.69505C80.3119 2.55171 80.5949 2.37544 80.5949 2.30336C80.5949 2.23139 80.3339 2.06215 80.0149 1.92737C79.3683 1.65417 78.9967 1.17282 78.8791 0.455768C78.7686 -0.217445 78.4585 -0.130951 78.2794 0.62325ZM43.7346 0.712325C43.09 0.833865 41.5869 1.14563 40.3943 1.40523C35.8055 2.40427 34.1427 2.37918 32.1341 1.28099C31.2287 0.785927 30.2161 1.00135 29.7358 1.79106C29.3611 2.40732 29.084 4.13852 29.087 5.84429L29.0899 7.3943L28.4673 7.64699C27.5745 8.00938 26.7636 8.78679 26.3043 9.72066C25.9433 10.4544 25.9199 10.5779 25.9207 11.7347C25.9216 12.8902 25.945 13.0117 26.2937 13.6807C26.7649 14.5844 27.6636 15.4078 28.841 16.0145C29.9824 16.6026 30.4584 17.1195 30.8043 18.146C31.0545 18.8889 31.0734 19.138 31.075 21.7191C31.0766 24.339 31.0902 24.512 31.3194 24.825C31.7728 25.4438 32.2243 25.5846 33.5379 25.5167C34.1826 25.4834 34.8155 25.4624 34.9444 25.47C35.0733 25.4777 42.6472 25.4999 51.7751 25.5196C67.625 25.5538 68.3894 25.5459 68.7695 25.3426C69.548 24.9265 69.5947 24.7232 69.6277 21.612C69.6715 17.4638 69.8922 16.9256 71.9444 15.962C73.077 15.4302 73.8214 14.7115 74.352 13.6379C74.7643 12.8037 74.7934 12.6751 74.7928 11.684C74.7923 10.7433 74.7513 10.5367 74.4316 9.86096C73.9922 8.93224 73.1889 8.10349 72.338 7.7009C71.9882 7.53541 71.6425 7.40004 71.5697 7.40004C71.4856 7.40004 71.468 7.30382 71.5214 7.13634C71.6963 6.58841 71.5998 4.31151 71.3556 3.21731C71.0338 1.77653 70.8525 1.45492 70.1998 1.16625C69.5496 0.878521 69.356 0.911453 67.86 1.56404L66.7064 2.06731L65.0069 2.06239C64.0722 2.05981 62.991 1.99043 62.6043 1.90838C62.2175 1.82646 60.9517 1.55466 59.7914 1.30443C55.0014 0.271642 52.516 0.208589 50.815 1.07636L50.3429 1.31721L49.3829 0.940518C48.477 0.585159 48.3232 0.561838 46.6647 0.527615C45.3134 0.49972 44.6354 0.542498 43.7346 0.712325ZM83.1344 0.797648C83.0913 0.840545 83.0538 1.14387 83.051 1.47157C83.0449 2.18146 82.8435 2.79186 82.4079 3.4203C82.0293 3.96682 81.1888 4.55307 80.6354 4.65691C80.4183 4.69758 80.2147 4.77294 80.1831 4.82428C80.0819 4.98777 80.2614 5.29027 80.461 5.29297C80.8048 5.29754 81.6986 5.76319 82.0997 6.14679C82.6171 6.64151 83.0251 7.46158 83.1237 8.20441C83.1852 8.66806 83.2505 8.80648 83.4078 8.80648C83.5651 8.80648 83.6304 8.66806 83.6919 8.20441C83.8913 6.70093 84.8373 5.71162 86.543 5.22253C86.8993 5.12044 86.6572 4.82873 86.0742 4.65773C85.2863 4.4266 84.7144 4.03198 84.2997 3.43378C83.8753 2.82139 83.6538 2.19143 83.6474 1.57881C83.6445 1.31006 83.6102 1.00686 83.5711 0.90489C83.4979 0.714318 83.2729 0.659115 83.1344 0.797648ZM43.5002 1.36139C42.7267 1.51048 41.5136 1.76504 40.8045 1.92702C38.1732 2.52803 36.5646 2.74216 35.1202 2.6838C33.7237 2.62731 33.674 2.61371 31.7433 1.76188L31.1208 1.48727L30.689 1.71863C30.1837 1.98949 30.0592 2.29539 29.7743 3.96682C29.5916 5.03876 29.5908 5.28019 29.7611 7.44071C29.7856 7.7506 29.7345 7.79361 29.042 8.04595C28.1434 8.3733 27.571 8.81093 27.0641 9.55834C26.5602 10.3011 26.4109 10.9103 26.472 11.9754C26.5579 13.4726 27.3658 14.5921 28.9279 15.3787C30.2452 16.0422 30.6218 16.3637 31.012 17.158C31.6246 18.405 31.7566 19.3338 31.6781 21.8447C31.6386 23.1084 31.656 24.164 31.719 24.3297C31.8896 24.7785 32.4141 24.9805 33.4094 24.9805C33.8931 24.9805 34.4269 24.9176 34.5959 24.8405C34.8341 24.732 34.9535 24.732 35.1273 24.8405C35.4549 25.0451 64.8768 25.0427 65.4428 24.8381C65.752 24.7263 65.8858 24.7263 66.0649 24.8381C66.1962 24.92 66.7039 24.9802 67.2615 24.98C68.3694 24.9795 68.9833 24.7221 69.0029 24.2497C69.0088 24.1037 69.0052 22.9822 68.9945 21.7574C68.9801 20.0823 69.0231 19.3005 69.1683 18.6019C69.5345 16.8399 69.9508 16.3014 71.5789 15.4827C72.7935 14.872 73.3562 14.3495 73.8253 13.3965C74.1626 12.7114 74.2068 12.5103 74.2024 11.6804C74.1987 10.9638 74.1346 10.601 73.9331 10.1543C73.4627 9.11156 72.4801 8.28833 71.2836 7.93461C70.9208 7.82737 70.8153 7.74064 70.8371 7.56776C70.8528 7.44329 70.9195 6.94588 70.9853 6.46242C71.1122 5.53136 71.0875 5.15912 70.7874 3.47374C70.544 2.10739 70.3926 1.81708 69.8364 1.65054C69.4277 1.52806 69.3111 1.55431 68.3428 1.98714C66.9203 2.62285 66.5414 2.71052 65.2108 2.71122C63.9218 2.71204 62.5167 2.51022 60.2016 1.99183C57.423 1.3696 56.1976 1.17949 54.5173 1.10976C52.6957 1.03416 51.8068 1.18161 50.8452 1.7191L50.3291 2.00753L49.6103 1.66882C49.215 1.48258 48.612 1.27185 48.2705 1.20059C47.2384 0.98541 45.0718 1.05842 43.5002 1.36139ZM78.1757 1.86865L77.8075 2.29304L78.2257 2.71626L78.6437 3.13948L79.0626 2.72259L79.4815 2.30582L79.0467 1.8642C78.8075 1.62135 78.5965 1.4275 78.5779 1.43348C78.5591 1.43934 78.3782 1.63518 78.1757 1.86865ZM44.3792 2.29773C43.8313 2.38716 42.5128 2.65157 41.4491 2.88527C38.1366 3.6131 37.8014 3.66619 36.1164 3.73065C34.1881 3.80437 33.464 3.69385 32.1496 3.12565C31.4802 2.83628 31.1801 2.7567 31.1206 2.85292C30.9326 3.15695 30.735 4.59913 30.7305 5.7006C30.726 6.74277 30.7555 6.91482 30.997 7.25354C31.1463 7.4631 31.3356 7.63445 31.4175 7.63445C31.4996 7.63445 31.8905 7.79631 32.2863 7.99415C33.4818 8.59141 34.5037 9.93174 35.0952 11.678C35.3501 12.4302 35.7062 14.0328 35.7062 14.4273C35.7062 14.7632 35.9919 14.7389 37.5957 14.267C41.2465 13.1927 44.6963 12.7923 50.298 12.7924C56.1426 12.7927 60.8326 13.3741 63.9376 14.4834C64.7329 14.7675 64.8688 14.7331 64.9475 14.2271C65.4825 10.7903 66.6879 8.78234 68.8024 7.80533C69.516 7.47564 69.6938 7.33804 69.8001 7.03308C69.9903 6.4875 69.9578 4.78771 69.736 3.66983C69.5786 2.87718 69.5071 2.70524 69.3549 2.75412C69.2519 2.78729 68.693 3.01548 68.1128 3.26126L67.058 3.70815L64.9483 3.69655C63.2358 3.68717 62.6181 3.63631 61.6667 3.42628C56.7573 2.34274 55.9761 2.21498 54.1657 2.19951C52.469 2.18498 52.3831 2.196 51.7044 2.5135C51.3176 2.69435 50.8601 2.97739 50.6877 3.14229L50.374 3.44222L49.8634 3.07549C48.9531 2.42173 48.2236 2.2117 46.7233 2.17139C45.9453 2.15041 44.9542 2.20385 44.3792 2.29773ZM83.1709 3.18671C82.9758 3.65787 81.9963 4.66746 81.5815 4.82521L81.2637 4.94605L81.779 5.27351C82.3364 5.62758 82.9979 6.32365 83.2013 6.76984C83.3621 7.12274 83.4543 7.12098 83.6181 6.76175C83.8055 6.35026 84.5351 5.57156 85.0054 5.2809L85.4082 5.03196L84.9061 4.70883C84.2944 4.31526 83.9823 3.98147 83.6089 3.32138L83.3239 2.81753L83.1709 3.18671ZM75.5162 4.31374C75.4732 4.35663 75.438 4.5131 75.438 4.66136C75.438 5.24128 75.0653 5.75217 74.419 6.05795C74.0769 6.21969 73.7972 6.40077 73.7972 6.46043C73.7972 6.51997 74.0263 6.66999 74.3064 6.79387C74.9685 7.08676 75.2933 7.44716 75.4838 8.10056C75.5688 8.39217 75.7064 8.63067 75.7896 8.63067C75.8728 8.63067 76.0116 8.38806 76.0981 8.09154C76.2802 7.46697 76.7032 6.99745 77.2678 6.79328C77.8155 6.59533 77.7851 6.30115 77.1991 6.12558C76.6233 5.95306 76.1438 5.35837 76.0566 4.70871C76.0107 4.36624 75.9381 4.23556 75.7937 4.23556C75.684 4.23556 75.5591 4.27072 75.5162 4.31374ZM75.3411 6.0174L74.9511 6.45222L75.3704 6.87146L75.7896 7.29069L76.1924 6.88787L76.5953 6.48504L76.1631 6.03381L75.731 5.58246L75.3411 6.0174ZM79.2562 7.42067C79.2294 7.50599 79.1826 7.89699 79.1522 8.28938C79.0889 9.10793 78.8851 9.55998 78.2735 10.2383C77.8499 10.7082 76.871 11.2643 76.4635 11.2666C76.2261 11.268 76.1749 11.7205 76.4049 11.785C77.3171 12.0409 77.6551 12.2076 78.1323 12.6366C78.7655 13.2059 79.055 13.7347 79.2435 14.6666C79.4247 15.5623 79.6626 15.5226 79.8566 14.5642C79.9396 14.1534 80.1169 13.6406 80.2502 13.4249C80.6446 12.7868 81.4713 12.1395 82.1745 11.9183C82.5305 11.8064 82.8218 11.6476 82.8218 11.5656C82.8218 11.4835 82.4922 11.298 82.0893 11.1532C81.5336 10.9535 81.2002 10.7305 80.708 10.2292C80.0317 9.54005 79.8154 8.99752 79.744 7.81119C79.7236 7.47224 79.6593 7.33265 79.5105 7.3044C79.3975 7.28307 79.2831 7.33535 79.2562 7.42067ZM29.2652 9.10207C28.5545 9.42179 28.0705 9.87584 27.7835 10.4922C27.0845 11.9933 27.7239 13.5511 29.3982 14.4264C30.7982 15.1583 31.2571 15.5064 31.7061 16.1776C32.5764 17.4789 32.8299 18.8399 32.7493 21.7801L32.6906 23.9257H33.3652C34.1882 23.9257 34.1256 24.1005 34.309 21.2886C34.6762 15.6587 33.9431 11.6069 32.2516 9.91745C31.3857 9.05249 30.1347 8.71096 29.2652 9.10207ZM69.7846 9.04042C68.157 9.53044 67.0717 11.3562 66.5099 14.5494C66.3324 15.5583 66.2938 21.2395 66.4532 22.9001L66.5517 23.9257H67.2591H67.9665L67.9078 22.5485C67.8366 20.8759 67.9985 18.5893 68.2502 17.7139C68.6877 16.1923 69.3708 15.3793 70.7931 14.6875C72.015 14.0932 72.4372 13.7396 72.8308 12.9812C73.9203 10.882 71.9846 8.37799 69.7846 9.04042ZM79.2607 9.79274C78.9908 10.2939 78.1842 11.1175 77.7356 11.35L77.3962 11.5258L77.7562 11.7002C78.2447 11.9369 79.1234 12.8201 79.3039 13.2561C79.4892 13.7032 79.5907 13.7039 79.7749 13.2593C79.968 12.7931 80.7118 12.0369 81.2474 11.7621L81.6768 11.5418L81.3032 11.3871C80.8411 11.1955 79.9531 10.3216 79.68 9.78934L79.4763 9.39226L79.2607 9.79274ZM19.6104 10.1739C19.5674 10.2168 19.5322 10.3791 19.5322 10.5345C19.5322 10.8475 18.9483 11.5021 18.6691 11.5021C18.2939 11.5021 18.3715 11.7376 18.8224 11.9676C19.2804 12.2013 19.6494 12.7013 19.6494 13.0884C19.6494 13.4061 19.9249 13.2113 20.0257 12.8224C20.1243 12.4422 20.7199 11.8538 21.0063 11.8538C21.3106 11.8538 21.1789 11.625 20.7782 11.4575C20.2994 11.2575 20.001 10.8595 20.001 10.4212C20.001 10.1151 19.7978 9.98636 19.6104 10.1739ZM23.0111 10.6506C22.9818 10.6999 22.9216 11.0097 22.8772 11.339C22.8327 11.6682 22.6994 12.0972 22.5808 12.2923C22.3247 12.7134 21.7184 13.1871 21.239 13.3405C20.7398 13.5002 20.7456 13.6861 21.2548 13.8514C22.1765 14.1505 22.7493 14.8025 22.9082 15.7339C22.9927 16.2288 23.2821 16.5207 23.2834 16.1121C23.286 15.2317 24.0086 14.2256 24.8763 13.8943C25.1645 13.7842 25.3834 13.6437 25.3629 13.582C25.3423 13.5204 25.1237 13.4006 24.8769 13.3157C24.0058 13.0163 23.2907 12.0333 23.2853 11.1282C23.2828 10.7208 23.1288 10.4522 23.0111 10.6506ZM19.4425 11.4094L19.1836 11.6683L19.4837 11.9815L19.7838 12.2947L20.0761 12.0024L20.3685 11.7099L20.1058 11.4303C19.7841 11.0878 19.7647 11.0873 19.4425 11.4094ZM22.9211 12.3998C22.832 12.5662 22.5322 12.9021 22.2549 13.1462L21.7508 13.59L22.117 13.8507C22.3183 13.9941 22.6302 14.3146 22.8101 14.5628L23.137 15.0141L23.4399 14.5567C23.6063 14.3051 23.9028 14.0045 24.0987 13.8888C24.2945 13.7731 24.4547 13.6485 24.4547 13.6118C24.4547 13.5751 24.2916 13.4488 24.0922 13.331C23.893 13.2133 23.5842 12.8875 23.4065 12.607L23.0831 12.0972L22.9211 12.3998ZM17.5397 13.3864C17.5397 13.7764 16.9985 14.4322 16.6767 14.4322C16.2843 14.4322 16.3867 14.6744 16.8767 14.9047C17.3219 15.1139 17.4166 15.2229 17.5416 15.6694C17.6941 16.2142 17.8529 16.3327 17.9646 15.9852C18.192 15.2776 18.3138 15.1041 18.7326 14.8904C19.1714 14.6665 19.2425 14.4322 18.8716 14.4322C18.5498 14.4322 18.0086 13.7764 18.0086 13.3864C18.0086 13.104 17.9578 13.0258 17.7741 13.0258C17.5905 13.0258 17.5397 13.104 17.5397 13.3864ZM17.4501 14.3395L17.1912 14.5984L17.496 14.9166L17.8009 15.2347L18.0718 14.9213L18.3428 14.608L18.0967 14.3443C17.7933 14.0193 17.7705 14.0191 17.4501 14.3395ZM47.3679 14.383C44.6298 14.5451 41.3396 14.9331 39.8669 15.2676C39.5446 15.3409 38.5425 15.6225 37.64 15.8935L35.9992 16.3863L35.9674 18.7524L35.9357 21.1185L36.2019 21.0598C36.7013 20.9498 41.3843 20.6427 44.3206 20.5275C49.6068 20.3201 55.7841 20.4267 61.4322 20.8225C62.7859 20.9174 64.0649 20.9951 64.2744 20.9953L64.6553 20.9956V18.6764V16.3573L63.9814 16.1667C63.6107 16.0619 62.775 15.8194 62.1242 15.6278C60.6742 15.2011 58.5414 14.8286 56.2475 14.6015C54.5906 14.4374 48.8391 14.2959 47.3679 14.383ZM20.2354 15.4351C20.2354 15.6 20.1739 15.9794 20.0985 16.2783C19.9345 16.9297 19.1993 17.7246 18.6025 17.8958C18.147 18.0264 18.0027 18.2677 18.3211 18.3664C19.4344 18.7115 20.0796 19.3701 20.2027 20.2869C20.2689 20.7813 20.4317 21.0108 20.5235 20.7393C20.5521 20.6546 20.6344 20.3553 20.7064 20.074C20.8716 19.4301 21.5477 18.694 22.1693 18.4818C22.7602 18.28 22.7649 18.0873 22.1839 17.8876C21.3498 17.6008 20.587 16.6322 20.587 15.8599C20.587 15.4374 20.4841 15.1354 20.3401 15.1354C20.2825 15.1354 20.2354 15.2703 20.2354 15.4351ZM20.196 16.9703C20.0089 17.3288 19.4953 17.8433 19.1325 18.0356C18.9195 18.1487 18.9223 18.1615 19.1911 18.3009C19.5921 18.5088 20.3521 19.3376 20.3548 19.5697C20.356 19.6771 20.5115 19.5191 20.7002 19.2186C20.889 18.9179 21.2044 18.577 21.4012 18.4607C21.598 18.3445 21.7559 18.2212 21.7519 18.1867C21.7479 18.1522 21.529 17.9659 21.2654 17.7725C21.0017 17.5791 20.6924 17.2445 20.5781 17.0289L20.3702 16.6368L20.196 16.9703ZM13.6684 19.5138C13.3763 19.5925 13.0086 19.7474 12.851 19.8577C11.9061 20.5195 10.9065 22.5196 9.79274 25.9767C8.10455 31.217 7.43614 33.1202 6.93065 34.1267L6.41284 35.1578L5.79378 34.9931C3.84481 34.4743 1.39691 35.1476 0.442527 36.4651C-0.363126 37.5772 -0.0387092 38.7298 1.17165 39.0557C1.8274 39.2323 4.12844 39.0018 5.42365 38.6299C5.99584 38.4655 6.90826 38.1124 7.45115 37.8451L8.43835 37.3593L9.27061 37.7992C9.7284 38.0411 11.1038 38.946 12.327 39.8099C16.2427 42.5756 18.2254 43.868 19.6876 44.6075C21.9901 45.7721 23.9056 46.2829 25.4256 46.138C26.8939 45.9978 27.5445 45.6217 28.0129 44.6422C28.3947 43.8437 28.4781 42.5823 28.1759 42.1728C28.0395 41.9877 27.9451 41.9958 26.7988 42.2911C25.687 42.5775 25.3702 42.6078 23.5171 42.6054C21.7336 42.6029 21.2979 42.5633 20.1768 42.3014C18.0477 41.8042 15.1556 40.5221 12.9298 39.0887C11.8274 38.3788 9.45274 36.6975 9.45274 36.6269C9.45274 36.5965 9.74352 36.3033 10.099 35.9755C11.1402 35.0153 12.1 33.4234 12.9234 31.2916C13.141 30.7281 13.6904 28.9182 14.1445 27.2693C15.4099 22.6736 15.7857 21.7163 16.6508 20.8847C16.8819 20.6625 17.0709 20.3918 17.0709 20.2829C17.0709 20.0106 16.6175 19.7379 15.8187 19.5298C15.0229 19.3226 14.3947 19.3179 13.6684 19.5138ZM18.5602 22.1698C17.8452 23.5399 17.8516 24.1006 18.5892 24.7232C19.2366 25.2696 20.4219 25.5152 20.5391 25.127C20.5732 25.0142 20.7825 24.5386 21.0043 24.0702C21.532 22.9555 21.5296 22.538 20.992 21.9427C20.6042 21.5136 19.7877 21.1128 19.3012 21.1128C19.1818 21.1128 18.9084 21.5028 18.5602 22.1698ZM46.1373 22.1214C41.2363 22.2298 36.3399 22.54 35.9118 22.7691C35.7629 22.8487 35.7062 23.0234 35.7062 23.4023V23.9257L50.3273 23.9258H64.9483L64.908 23.3441C64.8791 22.9267 64.8129 22.7466 64.6736 22.7065C64.273 22.5913 62.6666 22.4019 61.0806 22.2829C59.4384 22.1599 49.337 22.0506 46.1373 22.1214ZM17.4205 26.5651C17.0191 26.7371 17.0082 26.7593 17.0011 27.4141C16.9949 27.993 16.8465 28.4282 15.933 30.5476C14.7385 33.3191 14.343 34.4779 14.1457 35.7863C13.9226 37.2643 14.2507 38.4778 14.9963 38.9323C15.9896 39.538 17.4622 38.8197 18.9056 37.0254L19.6011 36.1609L19.596 37.0462C19.5879 38.4454 20.101 39.162 21.1109 39.162C21.8423 39.162 21.9935 39.0097 21.9935 38.2722C21.9935 37.4637 22.3908 36.4772 23.8774 33.5949C25.369 30.7027 26.1195 29.6039 27.502 28.2874C28.1212 27.6978 28.4953 27.5643 28.767 27.8361C29.0726 28.1418 28.8178 28.8409 27.2661 31.9541C25.7465 35.0027 25.394 35.9119 25.3116 36.9938C25.2127 38.2924 25.9404 39.1615 27.1269 39.1618C27.8911 39.1622 28.5744 38.7456 28.1947 38.5109C28.0075 38.3952 28.1561 37.7546 28.6849 36.3977C29.4867 34.3402 32.2342 29.9091 33.5941 28.4799C34.216 27.8264 34.2952 27.7796 34.7209 27.8145L35.1788 27.852L35.1562 28.3538C35.1402 28.7098 34.8462 29.4596 34.1449 30.9323C32.8278 33.6984 32.3148 35.264 32.3093 36.5329C32.3063 37.2622 32.6326 38.1991 33.0473 38.6517C33.8305 39.5063 34.9055 39.2605 36.3132 37.9049L37.1378 37.111L36.9388 37.5798C35.5373 40.8827 34.4634 43.9419 34.3415 44.9789C34.2563 45.7033 34.5821 46.514 35.093 46.8487C35.4514 47.0834 36.3151 47.1216 36.5655 46.9137C36.6669 46.8297 36.7539 46.4829 36.7836 46.0446C36.8466 45.1184 37.4734 43.5429 39.4283 39.3965C41.261 35.5093 42.0517 33.782 42.6471 32.3643C43.3695 30.644 43.8898 29.8165 44.9559 28.6922C45.4958 28.1227 46.1982 27.6762 46.554 27.6762C46.6594 27.6762 46.8951 27.7644 47.0776 27.8722C47.7576 28.2739 47.7761 30.2682 47.118 32.2405C46.4814 34.1484 44.895 36.8262 43.8681 37.7263C43.2375 38.2789 42.2778 38.2121 42.7855 37.6511C43.2198 37.1711 42.866 36.4664 42.1906 36.4664C41.2895 36.4664 41.0989 37.7823 41.8816 38.5992C42.3518 39.0901 43.1451 39.2792 44.7334 39.2792C47.6793 39.2792 49.5207 38.3276 51.6173 35.7212L52.3008 34.8715L52.3174 35.735C52.3306 36.4232 52.4041 36.7484 52.6792 37.3363C53.0769 38.1862 53.5446 38.5956 54.502 38.9322C55.3295 39.223 55.8827 39.2222 56.8197 38.9288C57.9341 38.58 58.7129 38.0771 59.8797 36.953C61.1225 35.7557 62.1301 34.4462 63.0034 32.8934C63.4931 32.0226 63.6793 31.7851 63.8238 31.846C64.8679 32.2864 65.9121 31.9924 66.5966 31.0653L66.8923 30.6648L66.4072 30.5811C65.7352 30.4652 65.2485 30.1522 64.9909 29.6705C64.401 28.5672 65.1834 27.3245 66.4679 27.3245C66.8038 27.3245 67.1357 27.4478 67.6417 27.7604C68.0297 28.0002 68.6023 28.2796 68.9139 28.3815L69.4806 28.5665L68.7467 29.5571C68.3429 30.1019 66.974 31.8398 65.7045 33.4191C63.0086 36.7731 62.1941 37.9595 62.1941 38.5324C62.1941 38.9976 62.1649 38.9934 63.6224 38.7419C64.7865 38.5409 65.2105 38.5691 66.7064 38.9465C68.0213 39.2783 69.1699 39.2168 70.0904 38.7652C70.9276 38.3544 72.1728 37.2019 73.0714 36.0062L73.7386 35.1185L73.7558 35.6624C73.8221 37.7543 75.0919 39.0914 77.0202 39.0998C78.3055 39.1054 79.2122 38.5231 80.2826 37.0043L80.7707 36.3117L80.8366 37.0665C80.9891 38.813 82.0828 39.5719 83.5125 38.9233C84.7504 38.3617 87.2021 35.2459 88.6161 32.4376C89.2236 31.231 89.2419 30.9429 88.7163 30.864C88.5251 30.8354 88.3784 31.0367 87.9248 31.9507C86.866 34.0842 84.5114 37.3269 83.7137 37.7502C83.247 37.9979 82.989 37.7971 83.0264 37.2152C83.0553 36.7649 83.3296 36.1749 85.119 32.7159C86.5916 29.869 86.9603 28.4268 86.4729 27.4201C86.3326 27.13 86.0599 26.811 85.8422 26.682C85.0421 26.208 83.4575 26.526 83.7642 27.0992C83.9363 27.4205 83.6878 28.2388 82.8295 30.1777C80.8067 34.7471 79.125 37.5097 78.1616 37.8455C77.5121 38.0719 77.0242 37.6456 76.8417 36.6926C76.5905 35.3798 77.0031 33.6475 78.0822 31.4853C78.979 29.6882 79.9493 28.2746 80.6184 27.7898C81.3468 27.2622 82.0016 27.3602 81.5979 27.9365C81.3489 28.2919 81.3687 28.6843 81.6498 28.9654C82.1924 29.508 82.9391 29.0836 82.9388 28.2329C82.9384 27.1571 82.2944 26.5297 81.077 26.4194C78.7292 26.2064 76.3367 28.0259 74.955 31.075C74.5251 32.0237 73.6274 33.828 73.5556 33.8879C73.5169 33.9201 73.2093 34.3578 72.8721 34.8605C71.2831 37.2284 69.4018 38.5549 68.0835 38.2367C67.7461 38.1553 66.0997 37.4856 65.8429 37.3254C65.8193 37.3106 66.2115 36.7553 66.7147 36.0913C68.7529 33.4013 71.2158 30.4378 72.9104 28.6364C73.5353 27.972 74.0252 27.3654 73.9992 27.2886C73.9693 27.2009 73.737 27.158 73.3763 27.1735C73.0598 27.1871 72.0018 27.2329 71.0252 27.2753L69.2495 27.3524L67.9193 26.9167C66.3954 26.4174 65.5532 26.3977 64.6843 26.841C63.2866 27.554 62.4669 29.2195 62.794 30.6814C62.9278 31.2791 62.9229 31.2996 62.4343 32.2066C61.2281 34.446 59.1154 36.8242 57.7232 37.5095C56.7506 37.9884 55.961 37.9901 55.607 37.5143C55.3039 37.1069 55.2178 36.0904 55.3915 34.9737L55.5351 34.0509L56.353 33.7725C58.1229 33.1699 60.035 31.5089 60.8447 29.8707C62.1338 27.2623 60.85 25.7599 58.0665 26.6196C56.0925 27.2294 54.639 28.7486 53.1313 31.7783C52.2369 33.5758 50.0097 36.3019 48.697 37.2059C48.3498 37.445 47.7838 37.7479 47.4393 37.8788L46.8127 38.1168L47.5664 37.291C50.3178 34.2764 51.434 29.4876 49.8297 27.581C49.3398 26.9988 48.4216 26.5898 47.4667 26.5285C46.7103 26.48 46.5369 26.5105 45.9589 26.7933C45.5997 26.9691 44.9917 27.4035 44.608 27.7588L43.9104 28.4046V28.0288C43.9104 27.0871 43.1437 26.3827 42.1277 26.391C41.3268 26.3977 41.0837 26.5961 41.045 27.2753C41.0117 27.8599 40.5306 29.2334 39.5159 31.6412C38.4713 34.1196 35.6093 37.9607 34.8867 37.8541C34.1515 37.7455 34.2714 37.1426 35.5786 34.3756C36.6996 32.0025 37.0774 30.9407 37.2144 29.7783C37.4278 27.968 36.9466 26.7831 35.8781 26.4881C34.731 26.1714 33.1865 27.3199 31.4903 29.7508C30.8948 30.6045 30.795 30.7032 30.8701 30.3648C30.9193 30.143 30.9595 29.4606 30.9595 28.8482C30.9595 27.9455 30.9151 27.6594 30.7251 27.3368C30.3472 26.6953 29.9194 26.4447 29.2136 26.4513C28.439 26.4587 27.79 26.8227 26.6736 27.8758L25.8612 28.6421V28.2548C25.8612 27.6341 25.4443 26.9081 24.9477 26.6642C24.0927 26.2443 22.6388 26.544 22.9262 27.0809C23.4087 27.9825 20.2633 34.1727 18.0082 36.7594C16.3633 38.6461 15.6866 38.0145 16.8542 35.6822C17.1384 35.1143 17.7738 33.885 18.266 32.9503C19.8151 30.009 20.2553 28.2753 19.6963 27.3181C19.2627 26.5759 18.2086 26.2271 17.4205 26.5651ZM59.1836 27.7802C58.3376 28.393 56.8528 30.6951 56.0599 32.6229L55.8813 33.0574L56.5145 32.7773C57.4343 32.3705 58.0666 31.9018 58.9058 31.0048C60.35 29.461 60.8757 27.4535 59.8383 27.4435C59.7352 27.4426 59.4405 27.594 59.1836 27.7802ZM75.8181 40.129C75.5858 40.4189 75.1887 41.296 75.2583 41.3655C75.2974 41.4046 75.6566 41.1094 76.0565 40.7095L76.7835 39.9825H76.3595C76.1263 39.9825 75.8827 40.0485 75.8181 40.129ZM57.3301 41.9093C56.4216 42.242 55.9326 43.1825 56.2015 44.08C56.4274 44.8342 56.7281 45.0923 57.9178 45.5532C59.1735 46.0397 59.6156 46.4338 59.6156 47.0664C59.6156 47.8543 58.8555 48.4211 57.799 48.4211C56.7686 48.4211 56.2671 48.0776 56.0231 47.2046C55.8923 46.7364 55.8877 46.7515 55.8766 47.6982L55.8651 48.6746L57.3221 48.6358C58.9363 48.5927 59.1679 48.5028 59.7139 47.7071C59.9426 47.3736 59.9801 47.1961 59.9407 46.6324C59.8688 45.6047 59.4346 45.2174 57.6098 44.5535C57.2479 44.4218 56.8633 44.2162 56.755 44.0966C56.436 43.7441 56.4048 43.1445 56.6825 42.7004C57.1833 41.8994 58.3345 41.7807 59.1638 42.4445L59.591 42.7865L59.4682 42.3864C59.4007 42.1663 59.2699 41.9572 59.1775 41.9218C58.7421 41.7548 57.77 41.7481 57.3301 41.9093ZM63.4833 41.8429C62.375 42.0836 61.5197 42.763 61.0025 43.8136C60.5612 44.7098 60.4363 45.768 60.6721 46.6102C60.8515 47.2512 61.5853 48.1105 62.2377 48.4436C62.8967 48.7801 64.0767 48.8553 64.9075 48.6138C65.605 48.411 66.6478 47.6954 66.6478 47.4195C66.6478 47.3257 66.7034 47.2491 66.7714 47.2491C66.9947 47.2491 67.4734 45.9985 67.5454 45.2272C67.6769 43.8188 67.0074 42.611 65.8093 42.0955C65.1452 41.8099 64.1389 41.7005 63.4833 41.8429ZM75.7434 41.8377C75.7051 41.8997 75.1172 43.3667 74.437 45.0978C73.7074 46.9546 73.101 48.3294 72.9583 48.4504C72.7212 48.6513 72.7267 48.6555 73.2274 48.6537C73.5715 48.6524 73.6848 48.6179 73.574 48.5477C73.439 48.4622 73.5091 48.1887 73.9638 47.0259L74.5182 45.6082H75.5493H76.5805L77.1455 47.0229C77.6169 48.203 77.6826 48.4553 77.5412 48.5447C77.4306 48.6148 77.6763 48.65 78.2509 48.6462C78.8773 48.6422 79.0563 48.6109 78.8738 48.5375C78.5422 48.4038 78.5972 48.5187 77.1366 44.905C76.4462 43.1968 75.8659 41.7825 75.8472 41.762C75.8284 41.7416 75.7818 41.7757 75.7434 41.8377ZM80.6018 41.9967C79.9256 42.349 79.636 42.7622 79.5758 43.4606C79.4847 44.518 80.0266 45.1266 81.4942 45.615C82.4376 45.9289 82.926 46.3428 83.0073 46.8974C83.0856 47.4319 82.7229 48.0248 82.1783 48.2523C81.3428 48.6015 79.941 48.3653 79.6528 47.8267C79.5904 47.7101 79.492 47.4137 79.4343 47.1682C79.3432 46.7809 79.3277 46.85 79.3174 47.6886L79.3057 48.6555L80.507 48.6548C81.9961 48.6541 82.4694 48.5279 82.9235 48.0105C83.5528 47.2938 83.5542 46.2682 82.9269 45.5537C82.6723 45.2637 82.2678 45.0338 81.4662 44.7232C80.1498 44.2131 79.8382 43.9085 79.9298 43.2217C80.0987 41.955 81.7333 41.5934 82.7924 42.5884L83.0592 42.8391L82.9314 42.4724C82.7542 41.9638 82.6266 41.8864 81.8244 41.8006C81.2275 41.7368 81.0444 41.7661 80.6018 41.9967ZM40.365 41.971L40.6287 42.0846V45.2294C40.6287 47.5878 40.592 48.4114 40.4822 48.5229C40.364 48.6429 40.7869 48.6644 42.6798 48.6343C45.3182 48.5922 45.5589 48.5307 46.4091 47.6805C47.8151 46.2744 47.8399 43.9202 46.4607 42.7399C45.649 42.045 45.194 41.9485 42.504 41.9005C40.8879 41.8717 40.1877 41.8947 40.365 41.971ZM48.3934 41.9843C48.5808 42.0935 48.5985 42.3802 48.5985 45.3124C48.5985 48.2698 48.5825 48.5253 48.3934 48.5747C48.2807 48.6041 49.23 48.6344 50.5031 48.6419L52.8178 48.6555L52.8042 48.1574C52.7967 47.8835 52.7647 47.7647 52.733 47.8937C52.6138 48.3787 52.4844 48.4212 51.1334 48.4193C50.416 48.4183 49.75 48.3676 49.6534 48.3066C49.5168 48.2204 49.4688 47.8803 49.4384 46.7847L49.3994 45.3738H50.6886C51.6104 45.3738 51.9947 45.4155 52.037 45.5203C52.0695 45.6009 52.1004 45.535 52.1056 45.3738L52.1151 45.0808L50.767 45.1172L49.4189 45.1536V43.6229V42.0921H50.7697C52.1027 42.0921 52.1219 42.096 52.2318 42.3851C52.3862 42.7912 52.4662 42.7513 52.4662 42.2679V41.8577L50.3273 41.8612C48.8168 41.8638 48.2486 41.8999 48.3934 41.9843ZM68.3765 41.9785L68.6402 42.0846V45.3028C68.6402 48.2693 68.6242 48.5253 68.4351 48.5747C68.3224 48.6041 68.6256 48.6303 69.109 48.6326C69.5925 48.635 69.909 48.6068 69.8123 48.57C69.4993 48.451 69.4643 48.2685 69.4624 46.7509L69.4606 45.2566H70.6092C71.3463 45.2566 71.8082 45.307 71.8985 45.3972C72.0078 45.5066 72.0391 45.4624 72.0391 45.198C72.0391 44.9336 72.0078 44.8894 71.8985 44.9988C71.8082 45.089 71.3463 45.1394 70.6092 45.1394H69.4606V43.6158V42.0921H70.7499C71.8829 42.0921 72.0675 42.1205 72.2735 42.3265L72.5079 42.5609V42.2093V41.8577L70.3104 41.8651C68.8769 41.87 68.2045 41.9094 68.3765 41.9785ZM41.4491 44.7672C41.4491 47.7616 41.4959 48.0636 41.995 48.291C42.422 48.4855 44.2592 48.4531 44.8622 48.2402C45.4672 48.0268 46.0594 47.4905 46.4099 46.8388C46.6112 46.4641 46.6621 46.1682 46.6633 45.3647C46.6646 44.45 46.6329 44.3081 46.3131 43.7938C45.5954 42.6398 44.6127 42.1663 42.6505 42.0288L41.4491 41.9447V44.7672ZM62.9523 42.2458C62.2475 42.4537 61.6521 42.975 61.302 43.6904C61.0367 44.2328 60.9996 44.4307 61.053 45.0197C61.2662 47.3711 63.4554 48.9942 65.3274 48.1889C66.0128 47.894 66.7751 47.1408 66.9779 46.5577C67.1702 46.0054 67.1512 45.1654 66.932 44.5222C66.41 42.9902 64.3746 41.8259 62.9523 42.2458ZM75.0839 44.1806C74.8597 44.7383 74.6586 45.235 74.6371 45.2843C74.6156 45.3335 75.0244 45.3738 75.5455 45.3738C76.4546 45.3738 76.6126 45.318 76.3917 45.0749C76.336 45.0138 76.142 44.5786 75.9606 44.1079C75.7792 43.6372 75.5994 43.2329 75.5612 43.2093C75.523 43.1856 75.3083 43.6228 75.0839 44.1806ZM31.7213 49.8431C29.2395 49.884 26.6816 49.9739 26.037 50.0429C24.7417 50.1816 23.2854 50.487 23.1127 50.6561C23.0514 50.716 22.908 50.7651 22.7938 50.7651C22.3595 50.7651 21.3175 51.3384 20.7489 51.8903C20.2299 52.3938 20.1329 52.5657 19.9615 53.285C19.8539 53.7362 19.7661 54.2693 19.7662 54.4695C19.7667 54.9114 20.4105 55.7995 21.0344 56.2186C21.2718 56.3781 21.677 56.6479 21.9349 56.8182C22.1927 56.9885 22.6016 57.3048 22.8435 57.5212C23.0854 57.7375 23.3359 57.9145 23.4002 57.9145C23.5701 57.9145 23.5438 58.4698 23.3706 58.5426C23.2691 58.5853 23.2945 58.6482 23.4536 58.7476C23.5798 58.8265 23.8171 59.0344 23.981 59.2095C24.359 59.6135 24.7679 59.8174 25.8372 60.1349C27.1643 60.5291 28.8969 60.8264 31.014 61.0234C32.0798 61.1227 33.8749 61.3053 35.003 61.4293C39.9489 61.9733 41.8298 62.0421 50.106 61.9822C60.6395 61.906 71.6824 61.6914 72.6721 61.5437C73.5047 61.4195 74.1488 61.1341 74.1488 60.8894C74.1488 60.813 73.9866 60.6938 73.7884 60.6247C73.5902 60.5556 73.4584 60.4496 73.4958 60.3894C73.5576 60.2894 74.4042 60.1244 75.6138 59.9765C75.8717 59.9451 76.5045 59.8242 77.0202 59.708C77.8328 59.5249 77.9031 59.4903 77.5477 59.4487L77.1374 59.4007L77.4891 59.316C77.7846 59.245 77.7379 59.2271 77.196 59.2038L76.5514 59.1761L77.1374 59.0519L77.7235 58.9277L77.196 58.7906L76.6686 58.6536L77.4817 58.5611C78.6463 58.4285 79.076 58.2671 78.0751 58.3382C77.3025 58.3931 77.2718 58.386 77.5477 58.2182C77.7088 58.1202 77.9725 58.0344 78.1337 58.0276C78.4031 58.0163 78.4078 58.0071 78.1923 57.9145C78.0633 57.8591 77.7733 57.8058 77.5477 57.796L77.1374 57.7783L77.4891 57.6173C77.6824 57.5287 78.078 57.4468 78.3681 57.4352C78.8703 57.415 78.8563 57.407 78.0751 57.2679C77.452 57.157 77.3587 57.1186 77.6872 57.108C78.2387 57.0902 78.4022 56.8645 77.8769 56.8461C77.6636 56.8386 77.5841 56.8079 77.7004 56.7776C77.8674 56.7344 77.8831 56.6883 77.7749 56.558C77.6656 56.4264 77.6938 56.371 77.9152 56.2822L78.1923 56.1714L77.8993 56.1633C77.3172 56.1472 76.7341 55.9231 76.8036 55.7422C76.8441 55.6369 76.7993 55.5705 76.6879 55.5705C76.4472 55.5705 75.6724 55.1091 75.6724 54.9659C75.6724 54.904 75.6322 54.8783 75.583 54.9086C75.5339 54.939 75.3625 54.8913 75.2021 54.8025C75.0417 54.7137 74.9719 54.6393 75.0468 54.6369C75.1216 54.6347 75.1695 54.5418 75.1532 54.4304C75.1184 54.1938 74.7855 54.0829 73.973 54.0374C73.4438 54.0078 73.4723 53.9974 74.266 53.9296C74.7494 53.8884 74.9441 53.8451 74.6986 53.8335C74.1312 53.8067 74.2401 53.5829 74.8296 53.5643C75.2072 53.5523 75.1802 53.5364 74.6176 53.4385C74.263 53.3769 73.3664 53.2578 72.6251 53.1739L71.2773 53.0214L72.1563 52.9894L73.0353 52.9575L72.3706 52.8862C72.0049 52.847 71.673 52.7821 71.6329 52.742C71.5928 52.7019 72.1656 52.6312 72.9058 52.5851C73.7463 52.5326 74.3313 52.4406 74.4639 52.34C74.5807 52.2515 74.808 52.175 74.9692 52.1701C75.1303 52.165 75.4944 52.0395 75.7781 51.8911L76.2941 51.6212L75.7781 51.5182C75.2714 51.417 75.2779 51.4144 76.1412 51.3704L77.0202 51.3257L76.317 51.1701C75.9303 51.0846 75.3765 51.0095 75.0864 51.0032C74.7963 50.997 73.9261 50.8864 73.1525 50.7576C71.4966 50.4819 69.8557 50.3507 65.9446 50.1817C64.3652 50.1134 62.282 50.0067 61.315 49.9447C59.2184 49.8101 38.1297 49.7377 31.7213 49.8431ZM41.1479 51.3644C41.119 51.4112 41.175 51.5291 41.2723 51.6263C41.532 51.8861 41.4911 52.0267 41.0965 52.2308C40.7146 52.4281 40.3644 52.3339 40.236 51.9991C40.1497 51.774 39.7771 51.7695 39.3543 51.9882C39.1754 52.0806 38.5744 52.6341 38.0187 53.218C37.4394 53.8268 36.9754 54.2265 36.9312 54.1549C36.8887 54.0861 37.375 53.5195 38.0119 52.8957C38.6488 52.2718 38.984 51.9188 38.7566 52.1112C38.5293 52.3035 38.0196 52.771 37.6238 53.1497L36.9044 53.8384L36.5982 53.388C36.4299 53.1403 36.2922 52.8117 36.2922 52.658C36.2922 52.4893 36.111 52.1972 35.8355 51.9217C35.4259 51.512 35.3464 51.4773 35.0638 51.5847C34.8906 51.6506 34.7072 51.6786 34.6561 51.6471C34.605 51.6154 34.6334 51.7866 34.7194 52.0272C34.8053 52.2677 34.8778 52.561 34.8806 52.6789C34.8834 52.7967 35.1033 53.3615 35.3692 53.9338L35.8527 54.9744L35.1269 56.1061C34.3084 57.3823 33.5965 58.682 33.5965 58.9001C33.5965 58.9801 33.7239 59.1653 33.8796 59.3116C34.2601 59.6692 34.5796 59.5531 34.7472 58.9964C34.8802 58.5546 36.1781 56.4753 36.4106 56.3316C36.4799 56.2888 36.3574 56.5352 36.1386 56.879C35.3815 58.0685 34.7686 59.2836 34.7686 59.5946C34.7686 60.0938 34.9252 59.9629 35.3415 59.1158C35.8177 58.1469 36.7502 56.722 36.8628 56.7915C36.9081 56.8196 37.1983 57.4661 37.5077 58.2283C38.0308 59.517 38.0933 59.6156 38.4019 59.6378C38.8513 59.67 39.1534 59.2161 39.0743 58.6269C39.0308 58.3021 38.2767 56.5796 37.7271 55.5496C37.6604 55.4245 39.9082 53.2264 40.1028 53.2264C40.1987 53.2264 40.2771 53.3055 40.2771 53.4022C40.2771 53.4989 40.3324 53.578 40.4001 53.578C40.4677 53.578 40.6198 53.7941 40.7381 54.0583C40.873 54.3596 40.9788 54.4798 41.0219 54.3806C41.0599 54.2938 41.0592 54.4863 41.0205 54.8086C40.9503 55.3948 40.8631 55.665 40.8631 55.297C40.8631 55.1895 40.817 55.1016 40.7606 55.1016C40.7042 55.1016 40.658 55.2204 40.6579 55.3654C40.6578 55.5103 40.5999 55.9191 40.5292 56.2737C40.4585 56.6282 40.3971 57.3402 40.3929 57.8559C40.3774 59.7076 40.3678 59.6529 40.7429 59.8468C40.9316 59.9444 41.1139 60.0242 41.1483 60.0242C41.2792 60.0242 41.8074 58.8326 41.7863 58.5847C41.7743 58.4417 41.7725 57.9997 41.7825 57.6025L41.8008 56.8804L42.6443 56.5495C43.6848 56.1412 44.674 55.2705 45.0786 54.4067C45.2408 54.0604 45.3933 53.8636 45.4405 53.9399C45.5735 54.1552 45.6791 53.8771 45.7328 53.1703C45.7738 52.6307 45.7395 52.4825 45.5115 52.2175C45.2748 51.9423 45.1344 51.897 44.3709 51.8488C43.892 51.8186 43.3025 51.7985 43.0607 51.8043C42.8144 51.81 42.6212 51.7582 42.6212 51.6864C42.6212 51.6159 42.5191 51.5849 42.3944 51.6176C42.2696 51.6501 42.1418 51.6098 42.1103 51.5279C42.0479 51.3652 41.233 51.2268 41.1479 51.3644ZM28.9602 52.5232C28.9163 53.0066 28.8392 53.4549 28.7889 53.5194C28.6679 53.6744 28.4892 55.3934 28.5358 55.9514C28.5573 56.2077 28.5205 56.3909 28.4475 56.3909C28.3787 56.3909 28.3232 56.4832 28.3242 56.596C28.3257 56.768 28.3436 56.7733 28.435 56.6287C28.4951 56.5339 28.5786 56.4907 28.6208 56.5329C28.7327 56.645 28.5705 56.8597 28.3741 56.8597C28.2812 56.8597 28.2052 56.9635 28.2052 57.0905C28.2052 57.2474 28.2615 57.2996 28.381 57.2537C28.5724 57.1802 28.5996 57.3324 28.4769 57.791C28.4101 58.0409 28.3906 58.0502 28.3251 57.8637C28.2728 57.7147 28.2011 57.8531 28.0894 58.3189C27.8427 59.3473 27.8714 59.3535 30.8307 58.9107C31.9079 58.7496 32.8127 58.6177 32.8413 58.6177C32.8699 58.6177 32.8933 58.565 32.8933 58.5005C32.8933 58.4361 32.722 58.3768 32.5124 58.3687C32.1718 58.3556 32.1845 58.3454 32.632 58.2726C33.2087 58.1787 33.3267 58.0854 33.3814 57.6801L33.4207 57.3871L32.2487 57.3519C31.6041 57.3326 30.6355 57.3749 30.0964 57.4461C29.5571 57.5171 29.0984 57.5576 29.0768 57.5361C29.0554 57.5145 29.0815 57.2349 29.1351 56.9145C29.2232 56.3871 29.2346 56.371 29.2557 56.7425L29.279 57.1527L29.5009 56.6839C29.6229 56.426 29.724 56.1227 29.7258 56.01C29.7283 55.8461 29.8328 55.8049 30.2459 55.8049C31.3447 55.8049 33.3621 55.2791 33.3621 54.9926C33.3621 54.9261 33.2338 54.8395 33.077 54.8001C32.8892 54.753 32.8142 54.6701 32.8573 54.5576C32.9067 54.4289 32.8541 54.4009 32.6444 54.4447C32.4912 54.4767 31.8741 54.5364 31.2732 54.5774L30.1804 54.6518L30.2639 54.0856C30.3609 53.4275 30.4441 53.3509 31.0767 53.3367C31.3345 53.3309 31.7828 53.284 32.0729 53.2324L32.6003 53.1385L32.0143 53.1125C31.692 53.0982 31.2358 53.0952 31.0007 53.1059C30.7655 53.1167 30.5429 53.0765 30.5059 53.0167C30.4352 52.9023 31.5966 52.7598 32.6115 52.7584C33.2184 52.7576 33.4689 52.607 33.633 52.144C33.765 51.7717 33.3105 51.6844 31.1324 51.6639L29.0403 51.6442L28.9602 52.5232ZM46.9859 52.0213C46.5181 52.2616 46.1527 52.5124 46.1743 52.5786C46.1959 52.6448 46.3941 52.7591 46.6149 52.8326C46.9824 52.9548 46.9923 52.9697 46.7324 53.0084C46.3493 53.0654 46.2681 53.3436 46.6346 53.3436C46.883 53.3436 46.9124 53.3895 46.8789 53.7245C46.8372 54.1423 46.8955 54.0591 47.0117 53.5349C47.0527 53.3501 47.1123 53.2246 47.1439 53.2564C47.1757 53.2882 47.1145 53.6969 47.0082 54.1646C46.8904 54.6823 46.779 54.9573 46.7232 54.8671C46.6169 54.695 46.5899 54.7676 46.3114 55.9807C46.0462 57.1362 45.9027 58.5186 46.0262 58.732C46.3224 59.2448 46.3417 59.2573 46.5576 59.079C46.7146 58.9494 46.7727 58.9444 46.8107 59.0572C46.909 59.3496 47.1383 59.1933 47.2808 58.7368C47.3609 58.4799 47.4265 57.9824 47.4265 57.631C47.4265 56.9842 47.5798 56.3898 47.7459 56.3922C47.7958 56.3929 48.0477 56.7986 48.3055 57.2939C48.6291 57.9155 49.0975 58.5333 49.8174 59.289C50.3911 59.891 50.9186 60.3641 50.9895 60.3402C51.0604 60.3161 51.1711 60.3669 51.2356 60.4529C51.3315 60.5808 51.4119 60.5701 51.6778 60.3945L52.0029 60.1799L51.7573 59.8677C51.5076 59.5503 51.5877 59.4346 51.872 59.7019C51.9577 59.7825 51.941 59.7114 51.8351 59.544C51.6439 59.2421 51.6452 59.2395 51.9831 59.2299C52.3381 59.2197 55.6096 58.7727 56.0702 58.6713C56.4644 58.5846 56.3882 58.3858 55.953 58.3657C55.638 58.3512 55.6631 58.336 56.0986 58.2778C56.5293 58.2203 56.6544 58.1464 56.7857 57.871C56.9212 57.5871 56.9213 57.5186 56.7867 57.4333C56.5618 57.2909 55.1469 57.3045 53.757 57.4626C53.1086 57.5363 52.5585 57.5758 52.5346 57.5505C52.5105 57.5251 52.5321 57.2933 52.5823 57.0355C52.6649 56.6118 52.6757 56.6006 52.6939 56.9183C52.7131 57.2503 52.7291 57.237 52.9843 56.6763C53.2439 56.1055 53.2702 56.0844 53.6669 56.1307C53.8938 56.1572 54.115 56.1211 54.1587 56.0505C54.2111 55.9658 54.0663 55.9167 53.7331 55.9061C53.4295 55.8965 53.6252 55.8519 54.2238 55.7943C55.3556 55.6854 56.8027 55.2628 56.8027 55.041C56.8027 54.9595 56.6688 54.859 56.5049 54.8179C56.3276 54.7734 56.2396 54.6906 56.2874 54.6133C56.3455 54.5193 56.0101 54.5065 55.0741 54.5671C54.3627 54.6133 53.7567 54.6073 53.7277 54.554C53.6985 54.5006 53.6983 54.2353 53.7269 53.9643C53.7787 53.4755 53.7832 53.4711 54.324 53.4046C54.6237 53.3676 55.1326 53.293 55.4549 53.2387C56.0063 53.1458 55.9804 53.1391 55.0154 53.1245C54.4514 53.1161 53.9899 53.0645 53.9899 53.0099C53.9899 52.9553 54.5768 52.877 55.2941 52.836C56.6205 52.7601 56.872 52.6733 57.034 52.2353C57.2049 51.7733 56.8933 51.7062 54.6136 51.7132L52.4831 51.7198L52.4084 52.5024C52.3674 52.9328 52.2848 53.3905 52.2249 53.5194C52.1045 53.7785 51.9651 55.1166 51.9777 55.8928C51.9821 56.1667 51.9356 56.3909 51.8743 56.3909C51.8132 56.3909 51.7672 56.4832 51.7723 56.596C51.7778 56.7185 51.8053 56.7421 51.8406 56.6546C51.9333 56.4249 52.1146 56.4831 52.1146 56.7425C52.1146 56.8714 52.0751 56.9707 52.0267 56.9631C51.7826 56.9245 51.6458 56.9951 51.6458 57.1596C51.6458 57.2601 51.6989 57.3095 51.7638 57.2694C51.9462 57.1567 52.0422 57.5452 51.9032 57.8331C51.7795 58.0889 51.7787 58.0887 51.7605 57.7973C51.7502 57.6316 51.6669 57.8226 51.5688 58.2368C51.4733 58.6398 51.3563 58.9693 51.3087 58.9693C51.2611 58.9693 50.9625 58.6156 50.645 58.1833C50.3276 57.751 49.8691 57.1676 49.6262 56.8869C49.3833 56.6063 49.1845 56.3267 49.1845 56.2656C49.1845 56.2045 49.3967 56.0696 49.656 55.9659C50.1401 55.7723 50.8729 55.0296 50.9785 54.6255C51.0596 54.3156 51.0163 54.333 50.452 54.8379C49.9284 55.3064 49.9434 55.2409 50.5556 54.3845C51.5286 53.0232 50.6159 51.7357 48.6004 51.626C47.9071 51.5882 47.7583 51.6247 46.9859 52.0213ZM59.27 52.2486C58.7898 52.6222 58.4392 52.8593 58.491 52.7755C58.5671 52.6526 58.536 52.653 58.3304 52.7782C58.0756 52.9333 57.2715 54.2404 57.2715 54.4996C57.2715 54.7269 58.3601 55.7054 58.4505 55.5592C58.5093 55.4642 58.5961 55.4639 58.7726 55.5584C58.9055 55.6295 59.1364 55.6881 59.2856 55.6888C59.4349 55.6894 59.8359 55.8199 60.177 55.9786L60.797 56.2672L60.6189 56.6117C60.5209 56.8012 60.2994 57.0674 60.1266 57.2033C59.702 57.5372 58.3438 57.9368 57.7844 57.8921C57.3665 57.8588 57.3272 57.8815 57.2933 58.1752C57.2656 58.4165 57.3669 58.606 57.708 58.9506C57.9564 59.2014 58.2893 59.4494 58.448 59.5017L58.7366 59.5967L58.4436 59.6891C58.258 59.7476 58.3441 59.7567 58.678 59.7139C59.3566 59.627 60.0051 59.3597 59.9101 59.2062C59.8681 59.1381 59.9528 59.086 60.1068 59.0853C60.7249 59.0824 62.3113 57.4055 62.3113 56.755C62.3113 56.691 62.0151 56.3188 61.6532 55.9278C61.1819 55.4188 60.7624 55.1065 60.1754 54.8276L59.3556 54.4382L60.0012 54.0097C60.5944 53.616 61.7006 53.2264 62.2256 53.2264C62.3448 53.2264 62.4097 53.1737 62.3699 53.1092C62.33 53.0447 62.4191 52.988 62.5681 52.9831C62.7892 52.9758 62.7638 52.9453 62.4285 52.8162C62.1032 52.6909 62.0729 52.6563 62.282 52.6493C62.872 52.6294 62.3979 52.0907 61.6876 51.974C61.2485 51.9019 61.2282 51.8849 61.4908 51.8099C61.7324 51.7409 61.699 51.7241 61.3004 51.7145C61.0345 51.708 60.6653 51.6728 60.48 51.636C60.1977 51.58 60.0011 51.6797 59.27 52.2486ZM64.7432 52.2342C64.3082 52.5933 63.9521 52.856 63.9521 52.8182C63.9521 52.7803 63.8524 52.8027 63.7304 52.868C63.3989 53.0454 62.7496 54.261 62.8253 54.5625C62.9111 54.9045 63.5093 55.4606 63.8505 55.5157C64.5404 55.6271 65.2384 55.8056 65.6891 55.9859C66.2991 56.23 66.3253 56.5023 65.7904 57.0373C65.3289 57.4988 63.9226 57.9784 63.3183 57.8804C62.8104 57.798 62.631 57.9224 62.7238 58.2924C62.8118 58.6428 63.4675 59.3088 63.9236 59.5109C64.2422 59.6523 64.2425 59.6536 63.9618 59.6631C63.8061 59.6682 63.7096 59.7035 63.7475 59.7414C63.8813 59.8752 65.1464 59.532 65.336 59.3105C65.4415 59.1873 65.6186 59.0865 65.7295 59.0865C66.03 59.0865 67.2933 57.8642 67.5693 57.3065C67.7992 56.842 67.8009 56.8051 67.6097 56.4754C67.2951 55.9331 66.4234 55.2185 65.6037 54.8311L64.8527 54.4763L65.1781 54.2168C65.7038 53.7975 66.4727 53.4579 67.2592 53.2974C67.6632 53.215 67.915 53.1168 67.8189 53.0791C67.7072 53.0352 67.75 53.0052 67.937 52.996C68.2252 52.9817 68.2242 52.9788 67.8784 52.8204C67.5647 52.6767 67.5552 52.6584 67.7905 52.6499C67.9355 52.6447 68.0542 52.5868 68.0542 52.5214C68.0542 52.3311 67.3246 51.9394 66.9408 51.9237L66.5892 51.9094L66.9408 51.82C67.2584 51.7391 67.24 51.7291 66.7503 51.7166C66.4522 51.709 66.0566 51.6755 65.8713 51.6419C65.591 51.5913 65.4014 51.6908 64.7432 52.2342ZM48.64 52.7568C48.4401 52.8374 48.34 53.0697 48.1512 53.8915C48.0207 54.4598 47.9312 54.9421 47.9523 54.9633C48.0863 55.0974 49.7033 54.024 49.9621 53.6291C50.1914 53.2791 50.0563 53.0655 49.4432 52.8094C48.9858 52.6182 48.9835 52.6181 48.64 52.7568ZM60.2371 53.166C59.7881 53.3906 59.3195 53.6918 59.1959 53.8353L58.971 54.0963L59.3208 53.875C59.9353 53.4864 60.9234 52.992 61.0857 52.992C61.1719 52.992 61.2752 52.9393 61.315 52.8748C61.4536 52.6507 61.0486 52.76 60.2371 53.166ZM65.7655 53.1617C64.9172 53.5812 64.4588 53.8894 64.549 53.9795C64.5779 54.0084 64.9279 53.8244 65.3271 53.5706C65.7262 53.3169 66.1239 53.1092 66.2107 53.1092C66.3961 53.1092 66.8807 52.7668 66.7031 52.7613C66.6368 52.7592 66.2148 52.9394 65.7655 53.1617ZM43.242 53.3493C42.4319 53.5094 42.3094 53.6223 42.2208 54.2906C42.1767 54.6229 42.1673 54.9213 42.1998 54.9537C42.3634 55.1175 44.3792 53.6143 44.3792 53.3287C44.3792 53.2068 43.9212 53.2153 43.242 53.3493ZM44.0276 54.1156C43.802 54.276 43.2746 54.5976 42.8556 54.8302C41.9605 55.3273 41.976 55.316 42.0667 55.4067C42.2059 55.5458 43.394 54.894 43.969 54.3629C44.6227 53.7593 44.6416 53.679 44.0276 54.1156ZM35.4296 55.9638C34.8778 56.7371 33.9527 58.3547 33.9498 58.5515C33.9489 58.6118 34.2957 58.1107 34.7204 57.4381C35.1451 56.7655 35.6276 56.0163 35.7926 55.7735C36.3145 55.0053 35.9935 55.1736 35.4296 55.9638ZM29.9123 56.0352C29.9822 56.1051 30.3152 56.1109 30.7854 56.0501L31.5455 55.9518L30.6723 55.937C30.1113 55.9273 29.8396 55.9625 29.9123 56.0352Z" fill="#0D6587"/>
</svg>
